<svg xmlns="http://www.w3.org/2000/svg" viewBox="0 0 158 32"><path d="M20.482 7.505c3.958 0 5.879 2.324 5.879 6.4v13.562h-3.074v-12.8c0-2.515-.5-4.496-3.574-4.496s-4.995 2.172-4.995 5.181v12.115h-3.075v-12.8c0-2.515-.5-4.496-3.573-4.496-3.075 0-4.996 2.172-4.996 5.181v12.115H0V8.038h3.074v2.324h.077C4.189 8.99 5.879 7.505 8.838 7.505c2.805 0 4.42 1.18 5.226 3.352h.077c1.345-1.828 3.382-3.352 6.34-3.352M28.934 8.038h3.074v19.429h-3.074zM48.607 15.048c-.153-2.134-1.614-4.877-5.533-4.877-4.65 0-6.417 3.924-6.417 7.581s1.767 7.581 6.417 7.581c3.958 0 5.38-2.704 5.533-5.028h3.074C51.412 24.724 47.916 28 43.074 28c-5.726 0-9.492-4.152-9.492-10.248s3.766-10.247 9.492-10.247c4.842 0 8.146 3.2 8.607 7.543zM61.271 7.505c.73 0 1.268.038 1.806.114v3.048H63c-4.265-.686-7.224 2.285-7.224 6.438v10.362h-3.074V8.038h3.074v3.848h.077c1.037-2.553 2.613-4.381 5.418-4.381M71.694 28c-5.995 0-9.607-4.19-9.607-10.248S65.7 7.505 71.694 7.505c5.956 0 9.568 4.19 9.568 10.247C81.262 23.81 77.65 28 71.694 28m0-2.667c4.38 0 6.494-3.428 6.494-7.58s-2.113-7.582-6.494-7.582c-4.42 0-6.533 3.429-6.533 7.581s2.114 7.581 6.533 7.581M90.332 2.895c-2.613-.19-3.728.19-3.728 2.4v2.743h3.728v2.667h-3.728v16.762H83.53V10.705h-2.728V8.038h2.728V4.99C83.53 1.03 85.528 0 88.141 0c.692 0 1.499.076 2.19.229zM99.182 25.333c3.92 0 5.38-2.514 5.726-3.847h3.074c-.999 3.619-3.804 6.514-8.685 6.514-5.956 0-9.568-4.152-9.568-10.248 0-6.476 3.689-10.247 9.415-10.247 6.148 0 9.145 4.152 9.145 11.047H92.803c0 3.505 2.114 6.781 6.38 6.781m-.038-15.162c-3.69 0-6.34 2.59-6.34 5.715h12.411c0-3.124-2.382-5.715-6.071-5.715M109.527.229h3.074v27.238h-3.074zM114.773.229h3.074v27.238h-3.074zM128.618 25.333c3.919 0 5.379-2.514 5.725-3.847h3.074c-.999 3.619-3.804 6.514-8.684 6.514-5.956 0-9.568-4.152-9.568-10.248 0-6.476 3.689-10.247 9.414-10.247 6.149 0 9.146 4.152 9.146 11.047h-15.486c0 3.505 2.113 6.781 6.379 6.781m-.039-15.162c-3.689 0-6.34 2.59-6.34 5.715h12.412c0-3.124-2.383-5.715-6.072-5.715M147.416 7.505c.73 0 1.268.038 1.806.114v3.048h-.077c-4.265-.686-7.224 2.285-7.224 6.438v10.362h-3.074V8.038h3.074v3.848h.077c1.038-2.553 2.613-4.381 5.418-4.381M28.93.636H32v3.819h-3.07zM154.246 7.636c-2.114 0-3.77-1.625-3.77-3.818S152.132 0 154.246 0C156.344 0 158 1.625 158 3.818s-1.656 3.818-3.754 3.818m0-.678c1.735 0 3.028-1.294 3.028-3.14 0-1.83-1.293-3.14-3.028-3.14-1.751 0-3.044 1.31-3.044 3.14 0 1.846 1.293 3.14 3.044 3.14m-1.483-1.136v-4.07h1.735c.836 0 1.388.425 1.388 1.167 0 .568-.299.9-.757 1.01v.015c.931.174.584 1.767.805 1.83v.048h-.836c-.174-.174.221-1.578-.868-1.578h-.678v1.578zm.789-3.376v1.12h.694c.426 0 .836-.032.836-.568 0-.537-.41-.552-.836-.552z"></path></svg>