<svg xmlns="http://www.w3.org/2000/svg" viewBox="0 0 188 32"><path d="M68.769 9.91c3.353 0 6.092 2.737 6.092 6.088s-2.739 6.088-6.092 6.088-6.092-2.737-6.092-6.088 2.71-6.087 6.092-6.087m0-2.931c-4.974 0-9.026 4.049-9.026 9.02s4.052 9.018 9.026 9.018 9.026-4.048 9.026-9.019c0-4.998-4.052-9.019-9.026-9.019M156.203 9.915c3.353 0 6.092 2.736 6.092 6.087s-2.739 6.087-6.092 6.087-6.092-2.736-6.092-6.087 2.739-6.087 6.092-6.087m0-2.932c-4.974 0-9.026 4.049-9.026 9.019s4.052 9.02 9.026 9.02 9.026-4.05 9.026-9.02a9 9 0 0 0-9.026-9.02M142.592 18.096a6.09 6.09 0 0 1-5.728 3.993c-3.353 0-6.091-2.736-6.091-6.087s2.738-6.087 6.091-6.087c2.627 0 4.862 1.675 5.728 3.993h3.046c-.922-3.965-4.499-6.925-8.774-6.925-4.974 0-9.025 4.049-9.025 9.019s4.051 9.02 9.025 9.02c4.275 0 7.852-2.96 8.774-6.926zM117.276 10.192c3.27 0 5.924 2.737 5.813 6.032-.112 3.155-2.795 5.584-5.952 5.584h-3.214V10.192zm0-2.932h-6.287v17.48h6.287c4.835 0 8.747-3.91 8.747-8.74s-3.912-8.74-8.747-8.74M170.316 7.288h-2.934v17.424h2.934zM44.092 24.796l3.325-12.817 3.326 12.817h4.023l4.555-17.591h-3.018l-3.549 13.654-3.548-13.654h-3.577L42.08 20.859 38.531 7.205h-3.017l4.554 17.591zM176.18 12.314l8.886 12.398H188V7.288h-2.934v12.398L176.18 7.26h-.223l-.028.028h-2.683v17.424h2.934zM99.532 7.288h-2.934v17.424h12.239V21.78h-9.305zM90.952 17.536c1.788-.894 3.018-2.709 3.018-4.83a5.394 5.394 0 0 0-5.393-5.39h-8.55V24.74h3.017v-6.646h1.677a6.613 6.613 0 0 1 6.427 6.618h3.017c.028-2.848-1.229-5.417-3.213-7.176m-7.908-2.457v-4.775h5.533c1.313 0 2.375 1.06 2.375 2.373s-1.062 2.402-2.375 2.402zM30.738 9.773a16 16 0 0 0-3.437-5.082 15.9 15.9 0 0 0-5.057-3.434A15.9 15.9 0 0 0 16.012 0c-2.179 0-4.275.419-6.23 1.257A16 16 0 0 0 4.695 4.69a16 16 0 0 0-3.437 5.082A15.7 15.7 0 0 0 0 16c0 2.15.42 4.244 1.258 6.227a16 16 0 0 0 3.437 5.082 15.5 15.5 0 0 0 5.085 3.407c1.984.837 4.08 1.256 6.231 1.256s4.248-.419 6.232-1.257c1.9-.81 3.604-1.954 5.085-3.434a16 16 0 0 0 3.437-5.082c.839-1.983 1.258-4.077 1.258-6.227s-.447-4.244-1.286-6.199m-20.035 4.72c.643-2.57 2.99-4.44 5.757-4.44h11.12a12.2 12.2 0 0 1 1.342 4.44zm18.22 3.015a12.8 12.8 0 0 1-1.342 4.44H16.46c-2.767 0-5.086-1.9-5.757-4.44zM6.818 6.813c2.46-2.457 5.729-3.797 9.193-3.797s6.735 1.34 9.194 3.797l.223.224h-8.97a8.88 8.88 0 0 0-6.342 2.624c-1.342 1.34-2.208 3.016-2.487 4.831H3.103a12.9 12.9 0 0 1 3.716-7.679m9.193 22.171c-3.464 0-6.734-1.34-9.193-3.797a12.96 12.96 0 0 1-3.716-7.68H7.63a9.06 9.06 0 0 0 2.487 4.832 8.88 8.88 0 0 0 6.343 2.624h8.97l-.224.224a12.92 12.92 0 0 1-9.194 3.797"></path></svg>