<svg xmlns="http://www.w3.org/2000/svg" viewBox="0 0 44 44"><path fill-rule="evenodd" d="m41.14 15.449-7.264 12.598-7.264-12.598zm-5.85 14.827a1.633 1.633 0 0 1-2.829 0l-8.487-14.72c-.63-1.09.157-2.454 1.414-2.454h16.976c1.258 0 2.044 1.363 1.415 2.454zM9.735 15.058c-4.086 0-7.399 3.327-7.399 7.43 0 4.105 3.313 7.432 7.399 7.432 4.085 0 7.398-3.327 7.398-7.431s-3.313-7.431-7.398-7.431M0 22.488c0-5.4 4.358-9.777 9.735-9.777s9.734 4.378 9.734 9.778-4.358 9.778-9.734 9.778S0 27.889 0 22.489Z"></path></svg>