<svg xmlns="http://www.w3.org/2000/svg" viewBox="0 0 94 33"><path d="M40.678 26.023v-2.966L51.32 9.943V9.86H40.68V6.57h15.333v3.292L45.726 22.595v.081h10.477v3.347zM63.718 26.431q-3.383 0-5.32-2.068-1.937-2.095-1.937-5.333 0-3.129 1.937-5.224 1.936-2.121 4.965-2.122 3.302 0 5.102 2.286t1.801 6.121h-10.15q.219 1.66 1.12 2.585.9.898 2.455.898 2.046 0 2.7-1.714h3.657q-.41 1.959-2.074 3.265-1.665 1.306-4.256 1.306m-.3-11.89q-2.7 0-3.247 2.993h6.22q-.081-1.333-.9-2.15-.818-.843-2.073-.843M75.012 12.065v2.231h.082q.656-1.224 1.446-1.796.791-.598 1.992-.598.573 0 .873.109v3.237h-.082q-1.883-.19-3.028.817t-1.146 3.156v6.802h-3.711V12.065zM91.954 24.336q-2.047 2.095-5.266 2.095c-3.22 0-3.902-.698-5.266-2.095q-2.046-2.122-2.046-5.278c0-3.156.682-3.855 2.046-5.252q2.047-2.122 5.266-2.122c3.219 0 3.901.707 5.266 2.122Q94 15.901 94 19.058c0 3.157-.682 3.863-2.046 5.278m-5.266-.735q1.664 0 2.592-1.224.955-1.25.955-3.32 0-2.067-.955-3.319-.928-1.251-2.592-1.251-1.691 0-2.62 1.251-.927 1.224-.927 3.32 0 2.068.928 3.319.927 1.224 2.619 1.224"></path><path fill-rule="evenodd" d="M7.375 30.609q3.576 1.89 8.567 1.891 4.99 0 8.546-1.891 3.576-1.892 5.476-5.477 1.92-3.601 1.919-8.685 0-5.054-1.92-8.624-1.898-3.57-5.475-5.447Q20.912.501 15.942.5c-4.97-.001-6.163.625-8.547 1.876Q3.839 4.251 1.919 7.823.02 11.378 0 16.447q0 5.07 1.9 8.67 1.918 3.584 5.475 5.492M8.454 6.745c-1.12 1.124-1.12 2.935-1.12 6.555v6.4c0 3.62 0 5.43 1.12 6.555s2.924 1.125 6.531 1.125h1.913c3.607 0 5.41 0 6.531-1.125s1.12-2.935 1.12-6.555v-6.4c0-3.62 0-5.43-1.12-6.555S20.505 5.62 16.898 5.62h-1.913c-3.607 0-5.41 0-6.531 1.125" clip-rule="evenodd"></path><path d="M29.284 3.284V1.513h.873a.6.6 0 0 1 .282.067q.136.065.22.194.086.13.086.32c0 .19-.03.234-.089.324a.6.6 0 0 1-.23.201.64.64 0 0 1-.29.07h-.61v-.32h.504q.094 0 .172-.069c.078-.069.079-.115.079-.206q0-.145-.079-.202c-.079-.057-.108-.058-.165-.058h-.318v1.45zm1.107-.823.416.823h-.478l-.395-.823zm-.42 1.879q-.399 0-.745-.149a1.92 1.92 0 0 1-1.169-1.771q0-.398.148-.746A1.93 1.93 0 0 1 29.226.649q.347-.15.744-.149.397 0 .744.149a1.92 1.92 0 0 1 1.169 1.771q0 .398-.148.746a1.93 1.93 0 0 1-1.021 1.025q-.347.15-.744.149m0-.492q.39 0 .714-.192c.324-.192.387-.3.514-.516q.194-.327.194-.72c0-.393-.065-.502-.194-.718q-.191-.326-.514-.518c-.323-.192-.453-.192-.715-.192q-.395 0-.717.192c-.322.192-.388.3-.517.518q-.19.324-.191.718c-.001.394.064.502.191.718q.194.324.517.518.323.192.717.192"></path></svg>