<svg xmlns="http://www.w3.org/2000/svg" viewBox="0 0 110 32"><path d="m51.616 8.041 7.325 12.663V8.04h3.184v17.105h-3.87L51.072 12.84v12.305h-3.184V8.04zM76.375 8.041v2.77H67.91v4.404h8.18v2.693h-8.18v4.455h8.672v2.77H64.726V8.04h11.662zM85.409 8.041c2.058 0 3.663.473 4.802 1.417 1.139.932 1.708 2.234 1.708 3.932 0 1.136-.298 2.131-.88 2.961-.57.83-1.398 1.43-2.485 1.787l3.922 7.008H89.02l-3.56-6.46h-3.533v6.46h-3.184V8.04zm-.117 7.902c1.036 0 1.851-.217 2.434-.651.595-.447.906-1.085.906-1.902s-.298-1.468-.906-1.902c-.583-.447-1.398-.677-2.434-.677h-3.365v5.132zM101.756 25.529c-1.709 0-3.171-.358-4.401-1.06a7.2 7.2 0 0 1-2.847-3.089c-.647-1.353-.971-2.936-.971-4.774s.324-3.433.97-4.773c.66-1.353 1.618-2.387 2.848-3.102 1.23-.728 2.705-1.085 4.401-1.085s3.196.357 4.426 1.085c1.229.727 2.174 1.761 2.821 3.102.66 1.327.997 2.923.997 4.773s-.337 3.421-.997 4.774c-.647 1.328-1.592 2.362-2.821 3.09-1.23.701-2.705 1.059-4.426 1.059m0-2.77c1.035 0 1.928-.243 2.653-.728.75-.485 1.32-1.174 1.708-2.093.401-.932.608-2.042.608-3.319 0-1.276-.207-2.387-.608-3.319-.388-.931-.958-1.633-1.708-2.118-.751-.498-1.631-.74-2.653-.74s-1.903.242-2.654.74c-.725.485-1.294 1.187-1.682 2.118-.389.932-.583 2.043-.583 3.32s.194 2.386.583 3.292c.388.92.944 1.621 1.682 2.12.75.484 1.631.727 2.654.727M0 15.994c0 1.769 1.45 3.203 3.24 3.203s3.24-1.434 3.24-3.203-1.451-3.204-3.24-3.204S0 14.224 0 15.994"></path><path d="M5.485 28.796a2.2 2.2 0 0 0-.129-.702l9.358-9.254c.438.217.929.357 1.458.357 1.781 0 3.24-1.43 3.24-3.203s-1.446-3.204-3.24-3.204c-.53 0-1.033.14-1.471.37L5.343 3.906c.078-.23.13-.46.13-.715 0-1.225-1.007-2.22-2.246-2.22S.98 1.965.98 3.19s1.007 2.221 2.246 2.221c.245 0 .477-.051.697-.115l9.37 9.267c-.22.434-.362.919-.362 1.43s.142 1.008.362 1.442L3.937 26.69a2.2 2.2 0 0 0-.71-.128c-1.24 0-2.246.996-2.246 2.221s1.007 2.221 2.246 2.221 2.245-.995 2.245-2.22zM26.884 3.204c0 1.225 1.007 2.22 2.246 2.22s2.246-.995 2.246-2.22S30.369.983 29.13.983s-2.246.995-2.246 2.22M26.884 28.796c0 1.225 1.007 2.221 2.246 2.221s2.246-.996 2.246-2.22c0-1.226-1.007-2.222-2.246-2.222s-2.246.996-2.246 2.221"></path><path d="M19.412 28.796c0-.523-.142-1.008-.362-1.442l8.609-8.514c.439.217.929.357 1.458.357 1.781 0 3.24-1.43 3.24-3.203s-1.446-3.204-3.24-3.204c-.529 0-1.032.14-1.471.37L19.05 4.659a3.1 3.1 0 0 0 .374-1.455C19.424 1.442 17.98 0 16.184 0s-3.239 1.43-3.239 3.204 1.446 3.204 3.24 3.204c.529 0 1.007-.14 1.445-.358l8.609 8.514c-.22.434-.361.919-.361 1.43s.142 1.008.361 1.442L17.63 25.95a3.3 3.3 0 0 0-1.458-.358c-1.781 0-3.24 1.43-3.24 3.204S14.378 32 16.172 32s3.24-1.43 3.24-3.204"></path></svg>